<?xml version="1.0" encoding="UTF-8" standalone="no"?>
<!-- Created with Inkscape (http://www.inkscape.org/) -->

<svg
   xmlns:dc="http://purl.org/dc/elements/1.1/"
   xmlns:cc="http://creativecommons.org/ns#"
   xmlns:rdf="http://www.w3.org/1999/02/22-rdf-syntax-ns#"
   xmlns:svg="http://www.w3.org/2000/svg"
   xmlns="http://www.w3.org/2000/svg"
   xmlns:sodipodi="http://sodipodi.sourceforge.net/DTD/sodipodi-0.dtd"
   xmlns:inkscape="http://www.inkscape.org/namespaces/inkscape"
   width="210mm"
   height="297mm"
   id="svg2"
   version="1.1"
   inkscape:version="0.48.2 r9819"
   sodipodi:docname="update-icon.svg">
  <defs
     id="defs4">
    <filter
       inkscape:collect="always"
       id="filter4505">
      <feGaussianBlur
         inkscape:collect="always"
         stdDeviation="4.9802794"
         id="feGaussianBlur4507" />
    </filter>
    <filter
       inkscape:collect="always"
       id="filter4567">
      <feGaussianBlur
         inkscape:collect="always"
         stdDeviation="6.0731301"
         id="feGaussianBlur4569" />
    </filter>
  </defs>
  <sodipodi:namedview
     id="base"
     pagecolor="#ffffff"
     bordercolor="#666666"
     borderopacity="1.0"
     inkscape:pageopacity="0.0"
     inkscape:pageshadow="2"
     inkscape:zoom="0.12374369"
     inkscape:cx="4504.564"
     inkscape:cy="-1402.1318"
     inkscape:document-units="px"
     inkscape:current-layer="layer1"
     showgrid="false"
     inkscape:window-width="1569"
     inkscape:window-height="1009"
     inkscape:window-x="192"
     inkscape:window-y="52"
     inkscape:window-maximized="0"
     showguides="true"
     inkscape:guide-bbox="true" />
  <metadata
     id="metadata7">
    <rdf:RDF>
      <cc:Work
         rdf:about="">
        <dc:format>image/svg+xml</dc:format>
        <dc:type
           rdf:resource="http://purl.org/dc/dcmitype/StillImage" />
        <dc:title></dc:title>
      </cc:Work>
    </rdf:RDF>
  </metadata>
  <g
     inkscape:label="Ebene 1"
     inkscape:groupmode="layer"
     id="layer1">
    <text
       xml:space="preserve"
       style="font-size:40px;font-style:normal;font-weight:normal;line-height:125%;letter-spacing:0px;word-spacing:0px;fill:#000000;fill-opacity:1;stroke:none;font-family:Sans"
       x="79.082657"
       y="-67.345757"
       id="text4767"
       sodipodi:linespacing="125%"><tspan
         sodipodi:role="line"
         id="tspan4769"
         x="79.082657"
         y="-67.345757">final update icon 14.01.2013</tspan></text>
    <g
       id="g4799"
       inkscape:export-filename="/Users/miho/EigeneApps/VRL/VRL/src/eu/mihosoft/vrl/resources/images/update-icon-01-active.png"
       inkscape:export-xdpi="10.36747"
       inkscape:export-ydpi="10.36747"
       transform="translate(-4234.5594,-3386.0313)">
      <rect
         y="3426.9641"
         x="4316.7114"
         height="555.58392"
         width="555.58392"
         id="rect4771"
         style="fill:none;stroke:none" />
      <g
         transform="matrix(0.92218926,0,0,-0.92218926,334.98194,7126.7019)"
         id="g4755">
        <path
           sodipodi:type="star"
           style="fill:#ff0000;fill-opacity:1;stroke:#ff2500;stroke-width:15;stroke-linecap:round;stroke-linejoin:round;stroke-miterlimit:4;stroke-opacity:1;stroke-dasharray:none"
           id="path4735"
           sodipodi:sides="9"
           sodipodi:cx="1011.4286"
           sodipodi:cy="2013.7908"
           sodipodi:r1="173.25777"
           sodipodi:r2="254.79083"
           sodipodi:arg1="0.52359878"
           sodipodi:arg2="0.87266463"
           inkscape:flatsided="false"
           inkscape:rounded="0"
           inkscape:randomized="0"
           d="m 1161.4742,2100.4197 13.7308,108.5522 -104.5188,-32.3721 -59.2576,91.9818 -59.25766,-91.9818 -104.51874,32.3721 13.73076,-108.5522 -100.87436,-42.385 80.2944,-74.3298 -50.02974,-97.3095 109.28738,-5.3278 24.22435,-106.7019 87.14361,66.1673 87.1436,-66.1673 24.2243,106.7019 109.2874,5.3278 -50.0297,97.3095 80.2944,74.3298 z"
           inkscape:transform-center-y="-63.697708"
           transform="translate(3607.4947,1689.2027)" />
        <g
           id="g4737"
           transform="matrix(0.8256621,0,0,0.8256621,3696.4205,1991.1534)"
           style="stroke:#000000;stroke-opacity:1">
          <g
             transform="matrix(2.2450142,0,0,2.2450142,-85.372274,-820.14437)"
             id="g4739"
             style="stroke:#000000;stroke-opacity:1">
            <path
               sodipodi:open="true"
               sodipodi:type="arc"
               style="fill:none;stroke:#000000;stroke-width:15;stroke-linecap:round;stroke-linejoin:round;stroke-miterlimit:4;stroke-opacity:1;stroke-dasharray:none"
               id="path4741"
               sodipodi:cx="457.85715"
               sodipodi:cy="878.07648"
               sodipodi:rx="51.428574"
               sodipodi:ry="51.428574"
               d="m 502.3956,903.79076 c -14.20161,24.59791 -45.65483,33.02578 -70.25274,18.82417 -10.01881,-5.78436 -17.79472,-14.77774 -22.0713,-25.52699"
               sodipodi:start="0.52359878"
               sodipodi:end="2.7629416"
               transform="matrix(-1,0,0,-1,995.81445,2169.2384)" />
            <path
               transform="matrix(0.22131195,0.54430303,-0.54430303,0.22131195,890.87988,854.39168)"
               d="m 433.625,721.4375 a 4.0410144,4.0410144 0 0 0 -3.8125,4.03125 l 0,3.1875 0,58.59375 a 4.0410144,4.0410144 0 0 0 5.78125,3.65625 C 457.04405,780.6106 478.49469,770.32089 499.9375,760 a 4.0410144,4.0410144 0 0 0 0,-7.3125 c -21.44223,-10.31464 -42.89597,-20.5873 -64.34375,-30.875 a 4.0410144,4.0410144 0 0 0 -1.96875,-0.375 z"
               id="path4743"
               style="fill:#000000;fill-opacity:1;stroke:#000000;stroke-width:0.86575258px;stroke-linecap:butt;stroke-linejoin:miter;stroke-opacity:1"
               inkscape:original="M 433.84375 725.46875 L 433.84375 728.65625 L 433.84375 787.25 C 455.29461 776.95408 476.7479 766.66309 498.1875 756.34375 C 476.74964 746.03121 455.29318 735.75724 433.84375 725.46875 z "
               inkscape:radius="4.0406103"
               sodipodi:type="inkscape:offset" />
          </g>
          <g
             id="g4745"
             transform="matrix(-2.2450142,0,0,-2.2450142,2329.306,4977.9084)"
             style="stroke:#000000;stroke-opacity:1">
            <path
               transform="matrix(-1,0,0,-1,995.81445,2169.2384)"
               sodipodi:end="2.7629416"
               sodipodi:start="0.52359878"
               d="m 502.3956,903.79076 c -14.20161,24.59791 -45.65483,33.02578 -70.25274,18.82417 -10.01881,-5.78436 -17.79472,-14.77774 -22.0713,-25.52699"
               sodipodi:ry="51.428574"
               sodipodi:rx="51.428574"
               sodipodi:cy="878.07648"
               sodipodi:cx="457.85715"
               id="path4747"
               style="fill:none;stroke:#000000;stroke-width:15;stroke-linecap:round;stroke-linejoin:round;stroke-miterlimit:4;stroke-opacity:1;stroke-dasharray:none"
               sodipodi:type="arc"
               sodipodi:open="true" />
            <path
               sodipodi:type="inkscape:offset"
               inkscape:radius="4.0406103"
               inkscape:original="M 433.84375 725.46875 L 433.84375 728.65625 L 433.84375 787.25 C 455.29461 776.95408 476.7479 766.66309 498.1875 756.34375 C 476.74964 746.03121 455.29318 735.75724 433.84375 725.46875 z "
               style="fill:#000000;fill-opacity:1;stroke:#000000;stroke-width:0.86575258px;stroke-linecap:butt;stroke-linejoin:miter;stroke-opacity:1"
               id="path4749"
               d="m 433.625,721.4375 a 4.0410144,4.0410144 0 0 0 -3.8125,4.03125 l 0,3.1875 0,58.59375 a 4.0410144,4.0410144 0 0 0 5.78125,3.65625 C 457.04405,780.6106 478.49469,770.32089 499.9375,760 a 4.0410144,4.0410144 0 0 0 0,-7.3125 c -21.44223,-10.31464 -42.89597,-20.5873 -64.34375,-30.875 a 4.0410144,4.0410144 0 0 0 -1.96875,-0.375 z"
               transform="matrix(0.22131195,0.54430303,-0.54430303,0.22131195,890.87988,854.39168)" />
          </g>
        </g>
        <path
           transform="translate(3607.4947,1689.2027)"
           inkscape:transform-center-y="-63.697708"
           d="m 1161.4742,2100.4197 13.7308,108.5522 -104.5188,-32.3721 -59.2576,91.9818 -59.25766,-91.9818 -104.51874,32.3721 13.73076,-108.5522 -100.87436,-42.385 80.2944,-74.3298 -50.02974,-97.3095 109.28738,-5.3278 24.22435,-106.7019 87.14361,66.1673 87.1436,-66.1673 24.2243,106.7019 109.2874,5.3278 -50.0297,97.3095 80.2944,74.3298 z"
           inkscape:randomized="0"
           inkscape:rounded="0"
           inkscape:flatsided="false"
           sodipodi:arg2="0.87266463"
           sodipodi:arg1="0.52359878"
           sodipodi:r2="254.79083"
           sodipodi:r1="173.25777"
           sodipodi:cy="2013.7908"
           sodipodi:cx="1011.4286"
           sodipodi:sides="9"
           id="path4751"
           style="fill:none;stroke:#000000;stroke-width:50;stroke-linecap:round;stroke-linejoin:round;stroke-miterlimit:4;stroke-opacity:1;stroke-dasharray:none;filter:url(#filter4505)"
           sodipodi:type="star" />
        <path
           sodipodi:type="star"
           style="fill:none;stroke:#ffffff;stroke-width:25;stroke-linecap:round;stroke-linejoin:round;stroke-miterlimit:4;stroke-opacity:1;stroke-dasharray:none;filter:url(#filter4505)"
           id="path4753"
           sodipodi:sides="9"
           sodipodi:cx="1011.4286"
           sodipodi:cy="2013.7908"
           sodipodi:r1="173.25777"
           sodipodi:r2="254.79083"
           sodipodi:arg1="0.52359878"
           sodipodi:arg2="0.87266463"
           inkscape:flatsided="false"
           inkscape:rounded="0"
           inkscape:randomized="0"
           d="m 1161.4742,2100.4197 13.7308,108.5522 -104.5188,-32.3721 -59.2576,91.9818 -59.25766,-91.9818 -104.51874,32.3721 13.73076,-108.5522 -100.87436,-42.385 80.2944,-74.3298 -50.02974,-97.3095 109.28738,-5.3278 24.22435,-106.7019 87.14361,66.1673 87.1436,-66.1673 24.2243,106.7019 109.2874,5.3278 -50.0297,97.3095 80.2944,74.3298 z"
           inkscape:transform-center-y="-63.697708"
           transform="translate(3607.4947,1689.2027)" />
      </g>
    </g>
    <g
       id="g4861"
       inkscape:export-filename="/Users/miho/EigeneApps/VRL/VRL/src/eu/mihosoft/vrl/resources/images/update-icon-01-inactive.png"
       inkscape:export-xdpi="10.36747"
       inkscape:export-ydpi="10.36747"
       transform="translate(-4234.5594,-3386.0313)">
      <rect
         style="fill:none;stroke:none"
         id="rect4815"
         width="555.58392"
         height="555.58392"
         x="4316.7114"
         y="4055.2791" />
      <path
         sodipodi:type="star"
         style="fill:#cccccc;fill-opacity:1;stroke:#ff0000;stroke-width:15;stroke-linecap:round;stroke-linejoin:round;stroke-miterlimit:4;stroke-opacity:1;stroke-dasharray:none"
         id="path4819"
         sodipodi:sides="9"
         sodipodi:cx="1011.4286"
         sodipodi:cy="2013.7908"
         sodipodi:r1="173.25777"
         sodipodi:r2="254.79083"
         sodipodi:arg1="0.52359878"
         sodipodi:arg2="0.87266463"
         inkscape:flatsided="false"
         inkscape:rounded="0"
         inkscape:randomized="0"
         d="m 1161.4742,2100.4197 13.7308,108.5522 -104.5188,-32.3721 -59.2576,91.9818 -59.25766,-91.9818 -104.51874,32.3721 13.73076,-108.5522 -100.87436,-42.385 80.2944,-74.3298 -50.02974,-97.3095 109.28738,-5.3278 24.22435,-106.7019 87.14361,66.1673 87.1436,-66.1673 24.2243,106.7019 109.2874,5.3278 -50.0297,97.3095 80.2944,74.3298 z"
         inkscape:transform-center-y="-63.697708"
         transform="matrix(0.92218926,0,0,-0.92218926,3661.7748,6197.2522)" />
      <g
         id="g4821"
         transform="matrix(0.76141672,0,0,-0.76141672,3743.7812,5918.7965)"
         style="stroke:#000000;stroke-opacity:1">
        <g
           transform="matrix(2.2450142,0,0,2.2450142,-85.372274,-820.14437)"
           id="g4823"
           style="stroke:#000000;stroke-opacity:1">
          <path
             sodipodi:open="true"
             sodipodi:type="arc"
             style="fill:none;stroke:#000000;stroke-width:15;stroke-linecap:round;stroke-linejoin:round;stroke-miterlimit:4;stroke-opacity:1;stroke-dasharray:none"
             id="path4825"
             sodipodi:cx="457.85715"
             sodipodi:cy="878.07648"
             sodipodi:rx="51.428574"
             sodipodi:ry="51.428574"
             d="m 502.3956,903.79076 c -14.20161,24.59791 -45.65483,33.02578 -70.25274,18.82417 -10.01881,-5.78436 -17.79472,-14.77774 -22.0713,-25.52699"
             sodipodi:start="0.52359878"
             sodipodi:end="2.7629416"
             transform="matrix(-1,0,0,-1,995.81445,2169.2384)" />
          <path
             transform="matrix(0.22131195,0.54430303,-0.54430303,0.22131195,890.87988,854.39168)"
             d="m 433.625,721.4375 a 4.0410144,4.0410144 0 0 0 -3.8125,4.03125 l 0,3.1875 0,58.59375 a 4.0410144,4.0410144 0 0 0 5.78125,3.65625 C 457.04405,780.6106 478.49469,770.32089 499.9375,760 a 4.0410144,4.0410144 0 0 0 0,-7.3125 c -21.44223,-10.31464 -42.89597,-20.5873 -64.34375,-30.875 a 4.0410144,4.0410144 0 0 0 -1.96875,-0.375 z"
             id="path4827"
             style="fill:#000000;fill-opacity:1;stroke:#000000;stroke-width:0.86575258px;stroke-linecap:butt;stroke-linejoin:miter;stroke-opacity:1"
             inkscape:original="M 433.84375 725.46875 L 433.84375 728.65625 L 433.84375 787.25 C 455.29461 776.95408 476.7479 766.66309 498.1875 756.34375 C 476.74964 746.03121 455.29318 735.75724 433.84375 725.46875 z "
             inkscape:radius="4.0406103"
             sodipodi:type="inkscape:offset" />
        </g>
        <g
           id="g4829"
           transform="matrix(-2.2450142,0,0,-2.2450142,2329.306,4977.9084)"
           style="stroke:#000000;stroke-opacity:1">
          <path
             transform="matrix(-1,0,0,-1,995.81445,2169.2384)"
             sodipodi:end="2.7629416"
             sodipodi:start="0.52359878"
             d="m 502.3956,903.79076 c -14.20161,24.59791 -45.65483,33.02578 -70.25274,18.82417 -10.01881,-5.78436 -17.79472,-14.77774 -22.0713,-25.52699"
             sodipodi:ry="51.428574"
             sodipodi:rx="51.428574"
             sodipodi:cy="878.07648"
             sodipodi:cx="457.85715"
             id="path4831"
             style="fill:none;stroke:#000000;stroke-width:15;stroke-linecap:round;stroke-linejoin:round;stroke-miterlimit:4;stroke-opacity:1;stroke-dasharray:none"
             sodipodi:type="arc"
             sodipodi:open="true" />
          <path
             sodipodi:type="inkscape:offset"
             inkscape:radius="4.0406103"
             inkscape:original="M 433.84375 725.46875 L 433.84375 728.65625 L 433.84375 787.25 C 455.29461 776.95408 476.7479 766.66309 498.1875 756.34375 C 476.74964 746.03121 455.29318 735.75724 433.84375 725.46875 z "
             style="fill:#000000;fill-opacity:1;stroke:#000000;stroke-width:0.86575258px;stroke-linecap:butt;stroke-linejoin:miter;stroke-opacity:1"
             id="path4833"
             d="m 433.625,721.4375 a 4.0410144,4.0410144 0 0 0 -3.8125,4.03125 l 0,3.1875 0,58.59375 a 4.0410144,4.0410144 0 0 0 5.78125,3.65625 C 457.04405,780.6106 478.49469,770.32089 499.9375,760 a 4.0410144,4.0410144 0 0 0 0,-7.3125 c -21.44223,-10.31464 -42.89597,-20.5873 -64.34375,-30.875 a 4.0410144,4.0410144 0 0 0 -1.96875,-0.375 z"
             transform="matrix(0.22131195,0.54430303,-0.54430303,0.22131195,890.87988,854.39168)" />
        </g>
      </g>
      <path
         transform="matrix(0.92218926,0,0,-0.92218926,3661.7748,6197.2522)"
         inkscape:transform-center-y="-63.697708"
         d="m 1161.4742,2100.4197 13.7308,108.5522 -104.5188,-32.3721 -59.2576,91.9818 -59.25766,-91.9818 -104.51874,32.3721 13.73076,-108.5522 -100.87436,-42.385 80.2944,-74.3298 -50.02974,-97.3095 109.28738,-5.3278 24.22435,-106.7019 87.14361,66.1673 87.1436,-66.1673 24.2243,106.7019 109.2874,5.3278 -50.0297,97.3095 80.2944,74.3298 z"
         inkscape:randomized="0"
         inkscape:rounded="0"
         inkscape:flatsided="false"
         sodipodi:arg2="0.87266463"
         sodipodi:arg1="0.52359878"
         sodipodi:r2="254.79083"
         sodipodi:r1="173.25777"
         sodipodi:cy="2013.7908"
         sodipodi:cx="1011.4286"
         sodipodi:sides="9"
         id="path4835"
         style="fill:none;stroke:#000000;stroke-width:50;stroke-linecap:round;stroke-linejoin:round;stroke-miterlimit:4;stroke-opacity:1;stroke-dasharray:none;filter:url(#filter4505)"
         sodipodi:type="star" />
      <path
         sodipodi:type="star"
         style="fill:none;stroke:#ffffff;stroke-width:25;stroke-linecap:round;stroke-linejoin:round;stroke-miterlimit:4;stroke-opacity:1;stroke-dasharray:none;filter:url(#filter4505)"
         id="path4837"
         sodipodi:sides="9"
         sodipodi:cx="1011.4286"
         sodipodi:cy="2013.7908"
         sodipodi:r1="173.25777"
         sodipodi:r2="254.79083"
         sodipodi:arg1="0.52359878"
         sodipodi:arg2="0.87266463"
         inkscape:flatsided="false"
         inkscape:rounded="0"
         inkscape:randomized="0"
         d="m 1161.4742,2100.4197 13.7308,108.5522 -104.5188,-32.3721 -59.2576,91.9818 -59.25766,-91.9818 -104.51874,32.3721 13.73076,-108.5522 -100.87436,-42.385 80.2944,-74.3298 -50.02974,-97.3095 109.28738,-5.3278 24.22435,-106.7019 87.14361,66.1673 87.1436,-66.1673 24.2243,106.7019 109.2874,5.3278 -50.0297,97.3095 80.2944,74.3298 z"
         inkscape:transform-center-y="-63.697708"
         transform="matrix(0.92218926,0,0,-0.92218926,3661.7748,6197.2522)" />
    </g>
  </g>
</svg>
